#!OML:ASF X:\für Bonn\!DataBase\2005_08_12_Daniel\c3d\Daniel.ASF
:FULLY-SPECIFIED
:DEGREES
263
root 2.75862 17.6727 17.43 -4.28104 11.2702 0.342205
lowerback 3.922 0.403205 0.597536
upperback 1.83355 0.54127 -4.64142
thorax -0.26202 0.298389 -5.15469
lowerneck 3.32059 -7.06111 -6.19242
upperneck 15.0942 -10.258 6.22623
head 4.62518 -5.09853 2.57762
rclavicle 7.50412e-015 -1.27222e-014
rhumerus -15.6866 1.31537 -68.426
rradius 109.795
rwrist -35.4123
rhand -5.42519 16.611
rfingers 7.12502
rthumb 20.3848 -12.3391
lclavicle 7.50412e-015 -1.27222e-014
lhumerus -37.6728 39.9115 61.5763
lradius 16.8676
lwrist -42.9708
lhand -10.6989 -6.68842
lfingers 7.12502
lthumb 15.3105 22.7248
rfemur 9.35209 20.2935 21.9073
rtibia 13.4783
rfoot -26.6985 -28.5266
rtoes -11.1684
lfemur 0.662766 -16.4546 -20.0962
ltibia 25.8846
lfoot -21.7401 9.94966
ltoes -12.3637
264
root 2.7611 17.6734 17.4255 -4.28984 11.0813 0.331666
lowerback 3.98798 0.316583 0.572584
upperback 1.84674 0.423697 -4.57918
thorax -0.297235 0.238407 -5.07093
lowerneck 3.38425 -7.05466 -6.32913
upperneck 15.2126 -10.2737 6.33747
head 4.66452 -5.10911 2.63358
rclavicle -6.41081e-015 4.6118e-014
rhumerus -17.047 1.67027 -69.2322
rradius 110.708
rwrist -35.6073
rhand -5.61636 16.5363
rfingers 7.12502
rthumb 20.2011 -12.4333
lclavicle -6.41081e-015 4.6118e-014
lhumerus -37.6257 39.8327 61.7587
lradius 16.9569
lwrist -42.7762
lhand -10.6889 -6.73312
lfingers 7.12502
lthumb 15.3202 22.6794
rfemur 9.30228 20.3945 21.895
rtibia 13.4963
rfoot -26.624 -28.4595
rtoes -11.1381
lfemur 0.695509 -16.3433 -20.0974
ltibia 25.8689
lfoot -21.7521 10.0247
ltoes -12.354
265
root 2.76304 17.6737 17.421 -4.28249 10.8985 0.332857
lowerback 4.02123 0.246578 0.550998
upperback 1.87215 0.329548 -4.54202
thorax -0.29882 0.191024 -5.01589
lowerneck 3.40097 -7.06481 -6.42795
upperneck 15.3685 -10.3155 6.47183
head 4.72403 -5.12813 2.6871
rclavicle -7.23079e-015 -6.36111e-015
rhumerus -18.3753 1.85881 -70.0565
rradius 111.534
rwrist -35.846
rhand -5.68578 16.4968
rfingers 7.12502
rthumb 20.1344 -12.4798
lclavicle -7.23079e-015 -6.36111e-015
lhumerus -37.4681 39.5939 62.0651
lradius 17.0841
lwrist -42.3282
lhand -10.5926 -6.66348
lfingers 7.12502
lthumb 15.413 22.7419
rfemur 9.23475 20.451 21.8535
rtibia 13.5201
rfoot -26.5441 -28.3397
rtoes -11.1275
lfemur 0.721425 -16.2842 -20.1176
ltibia 25.8491
lfoot -21.7922 10.1453
ltoes -12.4445
266
root 2.76565 17.6743 17.4176 -4.28531 10.7347 0.318883
lowerback 4.07137 0.150367 0.527018
upperback 1.88674 0.199646 -4.4746
thorax -0.324201 0.125034 -4.92629
lowerneck 3.33666 -7.06638 -6.56205
upperneck 15.6255 -10.3372 6.52866
head 4.82507 -5.14009 2.71884
rclavicle -3.38431e-014 5.24792e-014
rhumerus -19.6908 2.12889 -70.9049
rradius 112.375
rwrist -36.0896
rhand -5.75095 16.308
rfingers 7.12502
rthumb 20.0718 -12.6753
lclavicle -3.38431e-014 5.24792e-014
lhumerus -37.4068 39.4879 62.2735
lradius 17.1779
lwrist -42.0662
lhand -10.4818 -6.72202
lfingers 7.12502
lthumb 15.5197 22.6751
rfemur 9.17372 20.5321 21.8443
rtibia 13.5554
rfoot -26.4753 -28.2753
rtoes -11.1565
lfemur 0.756434 -16.2454 -20.1271
ltibia 25.8246
lfoot -21.8063 10.2662
ltoes -12.43
267
root 2.76794 17.6752 17.4125 -4.28079 10.5706 0.307415
lowerback 4.13845 0.0754233 0.518656
upperback 1.88591 0.0978068 -4.42945
thorax -0.371887 0.07288 -4.87017
lowerneck 3.36075 -7.08402 -6.64834
upperneck 15.8003 -10.3821 6.59574
head 4.88596 -5.16307 2.74976
rclavicle -4.38569e-014 6.67916e-014
rhumerus -21.0613 2.3134 -71.766
rradius 113.176
rwrist -36.3721
rhand -5.75537 16.175
rfingers 7.12502
rthumb 20.0675 -12.8087
lclavicle -4.38569e-014 6.67916e-014
lhumerus -37.2866 39.2002 62.5851
lradius 17.3119
lwrist -41.6684
lhand -10.4107 -6.67984
lfingers 7.12502
lthumb 15.5881 22.712
rfemur 9.09476 20.5837 21.8159
rtibia 13.5841
rfoot -26.3758 -28.1886
rtoes -11.1958
lfemur 0.788685 -16.2972 -20.153
ltibia 25.8017
lfoot -21.8446 10.444
ltoes -12.3093
268
root 2.76992 17.676 17.4088 -4.27429 10.4009 0.306676
lowerback 4.18708 -0.0146803 0.464847
upperback 1.89745 -0.0250298 -4.36002
thorax -0.398227 0.0103015 -4.76144
lowerneck 3.34276 -7.07398 -6.76071
upperneck 15.9827 -10.386 6.64942
head 4.95404 -5.16707 2.78102
rclavicle 2.11209e-015 1.74931e-014
rhumerus -22.356 2.52546 -72.638
rradius 113.914
rwrist -36.5774
rhand -5.80495 16.0156
rfingers 7.12502
rthumb 20.0198 -12.9731
lclavicle 2.11209e-015 1.74931e-014
lhumerus -37.2009 39.0463 62.8526
lradius 17.4349
lwrist -41.3128
lhand -10.2503 -6.58917
lfingers 7.12502
lthumb 15.7426 22.7906
rfemur 9.03435 20.6647 21.791
rtibia 13.6014
rfoot -26.3163 -28.1168
rtoes -11.3335
lfemur 0.810993 -16.2425 -20.1688
ltibia 25.7864
lfoot -21.8631 10.5547
ltoes -12.2954
269
root 2.77149 17.6767 17.4052 -4.27543 10.2304 0.27183
lowerback 4.25567 -0.096713 0.462281
upperback 1.87459 -0.136798 -4.29529
thorax -0.469718 -0.0474177 -4.68728
lowerneck 3.40892 -7.07049 -6.83904
upperneck 16.1645 -10.3978 6.66571
head 5.00517 -5.17686 2.79854
rclavicle 2.04251e-014 -5.88403e-014
rhumerus -23.746 2.71496 -73.5366
rradius 114.67
rwrist -36.858
rhand -5.7719 15.8407
rfingers 7.12502
rthumb 20.0516 -13.1446
lclavicle 2.04251e-014 -5.88403e-014
lhumerus -37.0969 38.5927 63.2269
lradius 17.581
lwrist -40.7283
lhand -10.1575 -6.55847
lfingers 7.12502
lthumb 15.832 22.8142
rfemur 8.97942 20.7439 21.8038
rtibia 13.6092
rfoot -26.2639 -28.0488
rtoes -11.2917
lfemur 0.835547 -16.1861 -20.1472
ltibia 25.7762
lfoot -21.8883 10.6599
ltoes -12.2816
